<svg width="24" height="24" viewBox="0 0 24 24" fill="none" xmlns="http://www.w3.org/2000/svg">
<path fill-rule="evenodd" clip-rule="evenodd" d="M10.1393 0C9.63705 0 9.2127 0.372585 9.14773 0.870647L8.88975 2.84831C8.49022 2.984 8.10248 3.14511 7.7285 3.32971L6.14729 2.11328C5.74917 1.807 5.18562 1.84359 4.83044 2.19877L2.19877 4.83044C1.84359 5.18562 1.807 5.74916 2.11327 6.14728L3.32949 7.72826C3.14488 8.10221 2.98376 8.48995 2.84806 8.88954L0.870636 9.14752C0.372579 9.21249 0 9.63684 0 10.1391V13.8609C0 14.3632 0.372579 14.7875 0.870636 14.8525L2.84809 15.1105C2.98378 15.51 3.14489 15.8977 3.3295 16.2717L2.11327 17.8527C1.807 18.2508 1.84359 18.8144 2.19877 19.1696L4.83044 21.8012C5.18562 22.1564 5.74917 22.193 6.14729 21.8867L7.72849 20.6703C8.10244 20.8549 8.49016 21.016 8.88975 21.1517L9.14773 23.1294C9.2127 23.6274 9.63705 24 10.1393 24H13.8611C14.3634 24 14.7877 23.6274 14.8527 23.1294L15.1107 21.1517C15.5102 21.016 15.898 20.8549 16.2719 20.6703L17.8529 21.8865C18.2511 22.1928 18.8146 22.1562 19.1698 21.801L21.8012 19.1696C22.1564 18.8144 22.193 18.2508 21.8867 17.8527L20.6705 16.2717C20.8551 15.8978 21.0162 15.5101 21.1519 15.1105L23.1294 14.8525C23.6274 14.7875 24 14.3632 24 13.8609V10.1391C24 9.63684 23.6274 9.21249 23.1294 9.14752L21.1519 8.88953C21.0161 8.48997 20.855 8.10225 20.6704 7.72835L21.8867 6.14728C22.193 5.74916 22.1564 5.18562 21.8012 4.83044L19.1698 2.19899C18.8146 1.84381 18.2511 1.80722 17.8529 2.11349L16.272 3.32971C15.898 3.1451 15.5103 2.98398 15.1107 2.84828L14.8527 0.870646C14.7877 0.372585 14.3634 0 13.8611 0H10.1393ZM10.7893 3.74848L11.0174 2H12.9831L13.2112 3.74848C13.2638 4.15207 13.5558 4.48349 13.9496 4.58654C14.6289 4.76435 15.2714 5.03333 15.8635 5.37995C16.2148 5.58562 16.6558 5.55779 16.9784 5.30956L18.3765 4.23409L19.7661 5.62377L18.6907 7.02179C18.4425 7.34439 18.4146 7.78522 18.6201 8.13653C18.9667 8.72884 19.2359 9.37163 19.4137 10.0507C19.5168 10.4444 19.8482 10.7364 20.2517 10.789L22 11.0171V12.9829L20.2517 13.211C19.8481 13.2636 19.5167 13.5556 19.4137 13.9494C19.2359 14.6287 18.9669 15.2712 18.6203 15.8633C18.4146 16.2146 18.4424 16.6555 18.6907 16.9782L19.7661 18.3762L18.3765 19.7659L16.9784 18.6904C16.6558 18.4422 16.2148 18.4144 15.8635 18.6201C15.2714 18.9666 14.6288 19.2356 13.9495 19.4135C13.5558 19.5166 13.2638 19.848 13.2112 20.2515L12.9831 22H11.0174L10.7893 20.2515C10.7366 19.8479 10.4446 19.5165 10.0509 19.4135C9.3715 19.2357 8.72905 18.9667 8.13696 18.6201C7.78562 18.4144 7.34467 18.4422 7.022 18.6905L5.62376 19.7661L4.23387 18.3762L5.30934 16.9782C5.55757 16.6555 5.58541 16.2146 5.37973 15.8633C5.03314 15.2712 4.76413 14.6285 4.5863 13.9493C4.48323 13.5556 4.15183 13.2636 3.74827 13.211L2 12.9829V11.0171L3.74827 10.789C4.15186 10.7364 4.48327 10.4444 4.58632 10.0506C4.76413 9.37128 5.03311 8.72883 5.37973 8.13674C5.58541 7.78541 5.55757 7.34446 5.30934 7.02179L4.23387 5.62377L5.62376 4.23388L7.022 5.30955C7.34467 5.55779 7.78562 5.58563 8.13696 5.37995C8.729 5.03336 9.37169 4.76435 10.0509 4.58652C10.4447 4.48345 10.7366 4.15205 10.7893 3.74848ZM8.7124 11.9998C8.7124 10.1841 10.1843 8.71216 12 8.71216C13.8157 8.71216 15.2876 10.1841 15.2876 11.9998C15.2876 13.8155 13.8157 15.2874 12 15.2874C10.1843 15.2874 8.7124 13.8155 8.7124 11.9998ZM12 6.71216C9.07975 6.71216 6.7124 9.07951 6.7124 11.9998C6.7124 14.9201 9.07975 17.2874 12 17.2874C14.9203 17.2874 17.2876 14.9201 17.2876 11.9998C17.2876 9.07951 14.9203 6.71216 12 6.71216Z" fill="#1B3842"/>
</svg>
